<svg xmlns="http://www.w3.org/2000/svg" width="512" height="512" viewBox="0 0 512 512" version="1.1">
	<path d="M 235.500 22.606 C 224.500 28.985, 204.025 40.860, 190 48.995 C 175.975 57.131, 159.100 66.905, 152.500 70.717 L 140.500 77.647 140.243 144.865 L 139.986 212.082 142.376 214.298 C 143.691 215.516, 152.356 220.850, 161.633 226.151 C 170.910 231.452, 185.250 239.706, 193.500 244.492 C 201.750 249.279, 210.525 254.328, 213 255.713 C 215.475 257.098, 226.304 263.354, 237.064 269.616 C 247.824 275.877, 257.274 280.995, 258.064 280.988 C 258.854 280.981, 261.300 279.938, 263.500 278.670 C 267.356 276.448, 302.180 256.340, 314.500 249.222 C 317.800 247.315, 322.075 244.860, 324 243.765 C 336.345 236.746, 361.646 222.010, 367.750 218.283 L 375 213.858 375 147.833 C 375 89.634, 374.814 81.494, 373.430 79.154 C 372.567 77.694, 368.404 74.586, 364.180 72.247 C 359.956 69.909, 354.475 66.815, 352 65.373 C 347.023 62.472, 335.954 56.136, 329 52.207 C 326.525 50.808, 317.352 45.464, 308.616 40.332 C 299.880 35.199, 292.615 31, 292.472 31 C 292.328 31, 284.906 26.719, 275.978 21.487 C 267.050 16.255, 258.790 11.757, 257.623 11.491 C 256.164 11.159, 249.240 14.638, 235.500 22.606 M 191 146 L 191 220 209.500 220 L 228 220 228 171 C 228 144.050, 228.338 122.004, 228.750 122.008 C 229.669 122.018, 230.738 123.955, 250.273 161 C 253.028 166.225, 256.064 171.850, 257.019 173.500 C 257.974 175.150, 260.777 180.325, 263.247 185 C 272.464 202.441, 278.397 213.588, 280.010 216.500 L 281.672 219.500 302.086 219.500 L 322.500 219.500 322.500 146 L 322.500 72.500 305.750 72.226 L 289 71.952 289 120.394 C 289 147.037, 288.720 169.567, 288.377 170.459 C 287.854 171.823, 287.565 171.717, 286.560 169.791 C 281.928 160.914, 273.429 144.987, 271.996 142.500 C 271.046 140.850, 266.992 133.200, 262.989 125.500 C 258.986 117.800, 255.390 111.050, 254.999 110.500 C 254.608 109.950, 251.336 103.875, 247.726 97 C 244.117 90.125, 239.664 81.689, 237.832 78.253 L 234.500 72.006 212.750 72.003 L 191 72 191 146 M 353 233.123 C 340.625 240.304, 327.575 247.862, 324 249.920 C 320.425 251.977, 308.275 258.994, 297 265.513 C 285.725 272.031, 272.900 279.444, 268.500 281.986 L 260.500 286.606 260.243 353.373 L 259.986 420.140 262.743 422.855 C 264.259 424.348, 281.025 434.525, 300 445.471 C 318.975 456.417, 344.088 470.914, 355.807 477.686 C 367.526 484.459, 377.775 490, 378.582 490 C 379.389 490, 390.051 484.201, 402.275 477.113 C 414.499 470.025, 439.125 455.785, 457 445.468 C 474.875 435.151, 490.738 425.844, 492.250 424.787 L 495 422.864 495 355.833 L 495 288.802 492.118 286.151 C 490.534 284.693, 487.046 282.341, 484.368 280.924 C 481.691 279.508, 465.100 269.999, 447.500 259.793 C 429.900 249.587, 413.786 240.276, 411.691 239.102 C 409.595 237.928, 404.645 235.118, 400.691 232.858 C 396.736 230.598, 391.475 227.616, 389 226.232 C 386.525 224.847, 383.306 222.878, 381.846 221.857 C 380.386 220.836, 378.361 220.015, 377.346 220.034 C 376.331 220.052, 365.375 225.943, 353 233.123 M 133.453 222.874 C 132.929 223.357, 130.475 224.870, 128 226.235 C 122.763 229.123, 110.645 236.108, 85.500 250.733 C 68.606 260.559, 64.723 262.801, 56 267.763 C 38.934 277.472, 22.278 287.332, 21.270 288.323 C 20.322 289.254, 20.026 304.894, 19.979 356.499 C 19.921 419.749, 20.017 423.540, 21.709 424.781 C 22.694 425.504, 30.025 429.854, 38 434.448 C 45.975 439.042, 62.625 448.641, 75 455.779 C 87.375 462.916, 99.075 469.664, 101 470.774 C 102.925 471.883, 111.586 476.888, 120.247 481.896 C 128.908 486.903, 136.402 491, 136.900 491 C 137.398 491, 144.937 486.888, 153.653 481.861 C 162.369 476.835, 171.075 471.836, 173 470.752 C 174.925 469.669, 183.296 464.811, 191.603 459.957 C 199.910 455.102, 208.342 450.212, 210.342 449.089 C 228.438 438.925, 252.643 424.566, 253.235 423.644 C 253.639 423.015, 253.976 392.999, 253.985 356.941 C 253.997 306.025, 253.721 291.012, 252.750 289.724 C 252.063 288.813, 248.575 286.545, 245 284.685 C 238.642 281.377, 215.920 268.369, 181.123 248.114 C 171.566 242.552, 163.557 238, 163.325 238 C 163.093 238, 160.442 236.425, 157.433 234.500 C 154.423 232.575, 151.734 231, 151.456 231 C 151.178 231, 148.150 229.250, 144.725 227.112 C 137.618 222.673, 134.813 221.619, 133.453 222.874 M 313 351 L 313 425 332 425 L 351 425 351 397.059 C 351 381.691, 351.337 368.919, 351.750 368.677 C 352.163 368.434, 365.550 380.999, 381.500 396.599 L 410.500 424.963 433.750 424.982 C 446.538 424.992, 457 424.639, 457 424.197 C 457 423.756, 439.675 406.386, 418.500 385.597 C 397.325 364.809, 380 347.462, 380 347.050 C 380 346.351, 399.751 326.657, 435.500 291.708 L 450.500 277.044 428 277.065 L 405.500 277.087 379.157 303.043 C 364.669 317.320, 352.407 329, 351.907 329 C 351.387 329, 351 317.899, 351 303 L 351 277 332 277 L 313 277 313 351 M 83 352.500 L 83 427 103 427 L 123 427 123 401.500 L 123 376 142.518 376 C 158.992 376, 163.243 375.681, 169.768 373.955 C 189.209 368.813, 200.549 358.451, 205.908 340.929 C 207.639 335.269, 207.280 316.741, 205.322 310.688 C 201.576 299.106, 193.948 290.199, 183.021 284.648 C 170.807 278.443, 166.779 278, 122.553 278 L 83 278 83 352.500 M 123 327 L 123 348 133.250 347.936 C 157.447 347.784, 165.263 342.652, 165.263 326.915 C 165.263 320.728, 164.829 318.460, 163.114 315.684 C 158.736 308.600, 151.065 306.030, 134.250 306.012 L 123 306 123 327" stroke="none" fill="black" fill-rule="evenodd"/>
</svg>